# Blender v2.79 (sub 0) OBJ File: ''
# www.blender.org
mtllib Pass2.mtl
v 1784.074829 2523.085693 -1784.073364
v 965.479675 3296.569092 -965.477783
v 0.000000 2523.086182 -2523.083496
v 0.000000 3296.569092 -1365.423462
v -1784.074829 2523.085693 -1784.073364
v -965.479675 3296.569092 -965.477783
v -2523.084473 2523.084473 0.001573
v -1365.425171 3296.568604 0.001825
v -1784.074829 2523.083984 1784.075562
v -965.479675 3296.568115 965.481506
v 0.000000 2523.083496 2523.086182
v 0.000000 3296.568115 1365.426880
v 1784.074829 2523.083984 1784.075562
v 965.479675 3296.568115 965.481506
v 2523.084473 2523.084473 0.001573
v 1365.425171 3296.568604 0.001825
v 1784.074829 2523.085693 -1784.073364
v 965.479675 3296.569092 -965.477783
v 1784.074829 2523.085693 -1784.073364
v 2331.088867 1365.425903 -2331.088379
v 2523.084473 2523.084473 0.001573
v 3296.568604 1365.425171 0.000444
v 1784.074829 2523.083984 1784.075562
v 2331.088867 1365.423706 2331.089355
v 0.000000 2523.083496 2523.086182
v 0.000000 1365.423462 3296.569092
v -1784.074829 2523.083984 1784.075562
v -2331.088867 1365.423706 2331.089355
v -2523.084473 2523.084473 0.001573
v -3296.568604 1365.425171 0.000444
v -1784.074829 2523.085693 -1784.073364
v -2331.088867 1365.425903 -2331.088379
v 0.000000 2523.086182 -2523.083496
v 0.000000 1365.426880 -3296.568115
v 1784.074829 2523.085693 -1784.073364
v 2331.088867 1365.425903 -2331.088379
v 2331.088867 1365.425903 -2331.088379
v 2523.084473 0.001573 -2523.084473
v 3296.568604 1365.425171 0.000444
v 3568.149658 0.000000 0.000000
v 2331.088867 1365.423706 2331.089355
v 2523.084473 -0.001573 2523.084473
v 0.000000 1365.423462 3296.569092
v 0.000000 -0.001913 3568.149658
v -2331.088867 1365.423706 2331.089355
v -2523.084473 -0.001573 2523.084473
v -3296.568604 1365.425171 0.000444
v -3568.149658 0.000000 0.000000
v -2331.088867 1365.425903 -2331.088379
v -2523.084473 0.001573 -2523.084473
v 0.000000 1365.426880 -3296.568115
v 0.000000 0.001913 -3568.149658
v 2331.088867 1365.425903 -2331.088379
v 2523.084473 0.001573 -2523.084473
v 2331.088867 -1365.423706 -2331.089355
v 2523.084473 0.001573 -2523.084473
v 0.000000 -1365.423462 -3296.569092
v 0.000000 0.001913 -3568.149658
v -2331.088867 -1365.423706 -2331.089355
v -2523.084473 0.001573 -2523.084473
v -3296.568604 -1365.425171 -0.000444
v -3568.149658 0.000000 0.000000
v -2331.088867 -1365.425903 2331.088379
v -2523.084473 -0.001573 2523.084473
v 0.000000 -1365.426880 3296.568115
v 0.000000 -0.001913 3568.149658
v 2331.088867 -1365.425903 2331.088379
v 2523.084473 -0.001573 2523.084473
v 3296.568604 -1365.425171 -0.000444
v 3568.149658 0.000000 0.000000
v 2331.088867 -1365.423706 -2331.089355
v 2523.084473 0.001573 -2523.084473
v 2331.088867 -1365.423706 -2331.089355
v 1784.074829 -2523.083984 -1784.075562
v 3296.568604 -1365.425171 -0.000444
v 2523.084473 -2523.084473 -0.001573
v 2331.088867 -1365.425903 2331.088379
v 1784.074829 -2523.085693 1784.073364
v 0.000000 -1365.426880 3296.568115
v 0.000000 -2523.086182 2523.083496
v -2331.088867 -1365.425903 2331.088379
v -1784.074829 -2523.085693 1784.073364
v -3296.568604 -1365.425171 -0.000444
v -2523.084473 -2523.084473 -0.001573
v -2331.088867 -1365.423706 -2331.089355
v -1784.074829 -2523.083984 -1784.075562
v 0.000000 -1365.423462 -3296.569092
v 0.000000 -2523.083496 -2523.086182
v 2331.088867 -1365.423706 -2331.089355
v 1784.074829 -2523.083984 -1784.075562
v 1784.074829 -2523.083984 -1784.075562
v 965.479675 -3296.568115 -965.481506
v 2523.084473 -2523.084473 -0.001573
v 1365.425171 -3296.568604 -0.001825
v 1784.074829 -2523.085693 1784.073364
v 965.479675 -3296.569092 965.477783
v 0.000000 -2523.086182 2523.083496
v 0.000000 -3296.569092 1365.423462
v -1784.074829 -2523.085693 1784.073364
v -965.479675 -3296.569092 965.477783
v -2523.084473 -2523.084473 -0.001573
v -1365.425171 -3296.568604 -0.001825
v -1784.074829 -2523.083984 -1784.075562
v -965.479675 -3296.568115 -965.481506
v 0.000000 -2523.083496 -2523.086182
v 0.000000 -3296.568115 -1365.426880
v 1784.074829 -2523.083984 -1784.075562
v 965.479675 -3296.568115 -965.481506
v 965.479675 -3296.568115 -965.481506
v 0.000000 -3296.568115 -1365.426880
v 0.000000 -3568.149658 -0.001913
v -965.479675 -3296.568115 -965.481506
v -1365.425171 -3296.568604 -0.001825
v -1365.425171 -3296.568604 -0.001825
v -965.479675 -3296.569092 965.477783
v 0.000000 -3568.149658 -0.001913
v 0.000000 -3296.569092 1365.423462
v 965.479675 -3296.569092 965.477783
v 0.000000 3296.569092 -1365.423462
v 965.479675 3296.569092 -965.477783
v 0.000000 3568.149658 0.001913
v 1365.425171 3296.568604 0.001825
v 965.479675 3296.568115 965.481506
v 965.479675 -3296.569092 965.477783
v 1365.425171 -3296.568604 -0.001825
v 0.000000 -3568.149658 -0.001913
v 965.479675 -3296.568115 -965.481506
v 0.000000 3296.569092 -1365.423462
v 0.000000 3568.149658 0.001913
v -965.479675 3296.569092 -965.477783
v -1365.425171 3296.568604 0.001825
v -1365.425171 3296.568604 0.001825
v 0.000000 3568.149658 0.001913
v -965.479675 3296.568115 965.481506
v 0.000000 3296.568115 1365.426880
v 0.000000 3296.568115 1365.426880
v 0.000000 3568.149658 0.001913
v 965.479675 3296.568115 965.481506
vt -4.5112 1.1736
vt -4.5112 2.0105
vt -3.2585 1.1736
vt -3.2585 2.0105
vt -1.9309 1.1736
vt -2.0056 2.0105
vt -0.7529 1.1736
vt -0.7529 2.0105
vt 0.5000 1.1736
vt 0.5000 2.0105
vt 1.7529 1.1736
vt 1.7529 2.0105
vt 3.0681 1.1736
vt 3.0056 2.0105
vt 4.2585 1.1736
vt 4.2585 2.0105
vt 5.5112 1.1736
vt 5.5112 2.0105
vt 5.5112 1.1736
vt 5.5112 0.3369
vt 4.2585 1.1736
vt 4.2585 0.3369
vt 3.0681 1.1736
vt 3.0681 0.3369
vt 1.7529 1.1736
vt 1.7529 0.3369
vt 0.5000 1.1736
vt 0.5000 0.3369
vt -0.7529 1.1736
vt -0.7529 0.3369
vt -1.9309 1.1736
vt -1.9309 0.3369
vt -3.2585 1.1736
vt -3.2585 0.3369
vt -4.5112 1.1736
vt -4.5112 0.3369
vt 5.5112 0.3369
vt 5.5112 -0.5000
vt 4.2585 0.3369
vt 4.2585 -0.5000
vt 3.0681 0.3369
vt 3.0056 -0.5000
vt 1.7529 0.3369
vt 1.7529 -0.5000
vt 0.5000 0.3369
vt 0.5000 -0.5000
vt -0.7529 0.3369
vt -0.9636 -0.5000
vt -1.9309 0.3369
vt -2.0056 -0.5000
vt -3.2585 0.3369
vt -3.2585 -0.5000
vt -4.5112 0.3369
vt -4.5112 -0.5000
vt -4.5112 -1.3369
vt -4.5112 -0.5000
vt -3.2585 -1.3369
vt -3.2585 -0.5000
vt -2.0056 -1.3369
vt -2.0056 -0.5000
vt -0.9636 -1.3369
vt -0.9636 -0.5000
vt 0.5000 -1.3369
vt 0.5000 -0.5000
vt 1.7529 -1.3369
vt 1.7529 -0.5000
vt 3.0056 -1.3369
vt 3.0056 -0.5000
vt 4.2585 -1.3369
vt 4.2585 -0.5000
vt 5.5112 -1.3369
vt 5.5112 -0.5000
vt 5.5112 -1.3369
vt 5.5112 -2.1736
vt 4.2585 -1.3369
vt 4.2585 -2.1736
vt 3.0056 -1.3369
vt 3.0056 -2.1736
vt 1.7529 -1.3369
vt 1.7529 -2.1736
vt 0.5000 -1.3369
vt 0.5000 -2.1736
vt -0.9636 -1.3369
vt -0.7529 -2.1736
vt -2.0056 -1.3369
vt -2.0056 -2.1736
vt -3.2585 -1.3369
vt -3.2585 -2.1736
vt -4.5112 -1.3369
vt -4.5112 -2.1736
vt 5.5112 -2.1736
vt 5.5112 -3.0105
vt 4.2585 -2.1736
vt 4.2585 -3.0105
vt 3.0056 -2.1736
vt 3.0056 -3.0105
vt 1.7529 -2.1736
vt 1.7529 -3.0105
vt 0.5000 -2.1736
vt 0.5000 -3.0105
vt -0.7529 -2.1736
vt -0.7529 -3.0105
vt -2.0056 -2.1736
vt -2.0056 -3.0105
vt -3.2585 -2.1736
vt -3.2585 -3.0105
vt -4.5112 -2.1736
vt -4.5112 -3.0105
vt 0.5732 -0.6619
vt 0.2429 -0.5105
vt 0.2429 -1.0271
vt -0.0876 -0.6619
vt -0.2246 -1.0271
vt -0.2246 -1.0271
vt -0.0876 -1.3926
vt 0.2429 -1.0271
vt 0.2429 -1.5439
vt 0.5732 -1.3926
vt 0.2427 -0.5146
vt 0.5715 -0.6653
vt 0.2427 -1.0286
vt 0.7075 -1.0286
vt 0.5715 -1.3921
vt 0.5732 -1.3926
vt 0.7102 -1.0271
vt 0.2429 -1.0271
vt 0.5732 -0.6619
vt 0.2427 -0.5146
vt 0.2427 -1.0286
vt -0.0862 -0.6653
vt -0.2222 -1.0286
vt -0.2222 -1.0286
vt 0.2427 -1.0286
vt -0.0862 -1.3921
vt 0.2427 -1.5425
vt 0.2427 -1.5425
vt 0.2427 -1.0286
vt 0.5715 -1.3921
vn -0.2243 -0.8103 0.5414
vn -0.0000 -0.8315 0.5555
vn 0.3928 -0.8315 0.3928
vn 0.5555 -0.8315 0.0000
vn 0.3928 -0.8315 -0.3928
vn 0.0000 -0.8315 -0.5555
vn -0.3928 -0.8315 -0.3928
vn -0.5555 -0.8315 -0.0000
vn -0.5414 -0.8103 0.2243
vn -0.7861 -0.5253 0.3256
vn -0.8315 -0.5556 -0.0000
vn -0.5879 -0.5556 -0.5879
vn 0.0000 -0.5556 -0.8315
vn 0.5879 -0.5556 -0.5879
vn 0.8315 -0.5556 0.0000
vn 0.5879 -0.5556 0.5879
vn -0.0000 -0.5556 0.8315
vn -0.3256 -0.5253 0.7861
vn -0.9087 -0.1807 0.3764
vn -0.9808 -0.1951 0.0000
vn -0.6935 -0.1950 -0.6935
vn -0.0000 -0.1951 -0.9808
vn 0.6935 -0.1950 -0.6935
vn 0.9808 -0.1951 -0.0000
vn 0.6935 -0.1950 0.6935
vn 0.0000 -0.1951 0.9808
vn -0.3764 -0.1807 0.9087
vn -0.3764 0.1807 0.9087
vn -0.0000 0.1951 0.9808
vn 0.6935 0.1950 0.6935
vn 0.9808 0.1951 0.0000
vn 0.6935 0.1950 -0.6935
vn 0.0000 0.1951 -0.9808
vn -0.6935 0.1950 -0.6935
vn -0.9808 0.1951 -0.0000
vn -0.9087 0.1807 0.3764
vn -0.7861 0.5253 0.3256
vn -0.8315 0.5556 0.0000
vn -0.5879 0.5556 -0.5879
vn -0.0000 0.5556 -0.8315
vn 0.5879 0.5556 -0.5879
vn 0.8315 0.5556 -0.0000
vn 0.5879 0.5556 0.5879
vn 0.0000 0.5556 0.8315
vn -0.3256 0.5253 0.7861
vn -0.5414 0.8103 0.2243
vn -0.5555 0.8315 0.0000
vn -0.3928 0.8315 -0.3928
vn -0.0000 0.8315 -0.5555
vn 0.3928 0.8315 -0.3928
vn 0.5555 0.8315 -0.0000
vn 0.3928 0.8315 0.3928
vn 0.0000 0.8315 0.5555
vn -0.2243 0.8103 0.5414
vn -0.0805 0.9776 0.1944
vn 0.0000 0.9808 0.1951
vn 0.0653 0.9853 0.1577
vn 0.1379 0.9808 0.1379
vn 0.1944 0.9776 0.0805
vn 0.1944 0.9776 -0.0805
vn 0.1379 0.9808 -0.1379
vn 0.0653 0.9853 -0.1577
vn 0.0000 0.9808 -0.1951
vn -0.0805 0.9776 -0.1944
vn -0.0805 -0.9776 0.1944
vn -0.1379 -0.9808 0.1379
vn -0.1577 -0.9853 0.0653
vn -0.1951 -0.9808 -0.0000
vn -0.1944 -0.9776 -0.0805
vn -0.1944 0.9776 -0.0805
vn -0.1951 0.9808 0.0000
vn -0.1944 0.9776 0.0805
vn 0.0805 -0.9776 0.1944
vn 0.1379 -0.9808 0.1379
vn 0.1944 -0.9776 0.0805
vn 0.1944 -0.9776 -0.0805
vn 0.1379 -0.9808 -0.1379
vn 0.0805 -0.9776 -0.1944
vn -0.0805 -0.9776 -0.1944
usemtl space
s 1
f 1/1/1 2/2/1 3/3/2
f 2/2/1 4/4/2 3/3/2
f 3/3/2 4/4/2 5/5/3
f 4/4/2 6/6/3 5/5/3
f 5/5/3 6/6/3 7/7/4
f 6/6/3 8/8/4 7/7/4
f 7/7/4 8/8/4 9/9/5
f 8/8/4 10/10/5 9/9/5
f 9/9/5 10/10/5 11/11/6
f 10/10/5 12/12/6 11/11/6
f 11/11/6 12/12/6 13/13/7
f 12/12/6 14/14/7 13/13/7
f 13/13/7 14/14/7 15/15/8
f 14/14/7 16/16/8 15/15/8
f 15/15/8 16/16/8 17/17/9
f 16/16/8 18/18/9 17/17/9
f 19/19/10 20/20/10 21/21/11
f 20/20/10 22/22/11 21/21/11
f 21/21/11 22/22/11 23/23/12
f 22/22/11 24/24/12 23/23/12
f 23/23/12 24/24/12 25/25/13
f 24/24/12 26/26/13 25/25/13
f 25/25/13 26/26/13 27/27/14
f 26/26/13 28/28/14 27/27/14
f 27/27/14 28/28/14 29/29/15
f 28/28/14 30/30/15 29/29/15
f 29/29/15 30/30/15 31/31/16
f 30/30/15 32/32/16 31/31/16
f 31/31/16 32/32/16 33/33/17
f 32/32/16 34/34/17 33/33/17
f 33/33/17 34/34/17 35/35/18
f 34/34/17 36/36/18 35/35/18
f 37/37/19 38/38/19 39/39/20
f 38/38/19 40/40/20 39/39/20
f 39/39/20 40/40/20 41/41/21
f 40/40/20 42/42/21 41/41/21
f 41/41/21 42/42/21 43/43/22
f 42/42/21 44/44/22 43/43/22
f 43/43/22 44/44/22 45/45/23
f 44/44/22 46/46/23 45/45/23
f 45/45/23 46/46/23 47/47/24
f 46/46/23 48/48/24 47/47/24
f 47/47/24 48/48/24 49/49/25
f 48/48/24 50/50/25 49/49/25
f 49/49/25 50/50/25 51/51/26
f 50/50/25 52/52/26 51/51/26
f 51/51/26 52/52/26 53/53/27
f 52/52/26 54/54/27 53/53/27
f 55/55/28 56/56/28 57/57/29
f 56/56/28 58/58/29 57/57/29
f 57/57/29 58/58/29 59/59/30
f 58/58/29 60/60/30 59/59/30
f 59/59/30 60/60/30 61/61/31
f 60/60/30 62/62/31 61/61/31
f 61/61/31 62/62/31 63/63/32
f 62/62/31 64/64/32 63/63/32
f 63/63/32 64/64/32 65/65/33
f 64/64/32 66/66/33 65/65/33
f 65/65/33 66/66/33 67/67/34
f 66/66/33 68/68/34 67/67/34
f 67/67/34 68/68/34 69/69/35
f 68/68/34 70/70/35 69/69/35
f 69/69/35 70/70/35 71/71/36
f 70/70/35 72/72/36 71/71/36
f 73/73/37 74/74/37 75/75/38
f 74/74/37 76/76/38 75/75/38
f 75/75/38 76/76/38 77/77/39
f 76/76/38 78/78/39 77/77/39
f 77/77/39 78/78/39 79/79/40
f 78/78/39 80/80/40 79/79/40
f 79/79/40 80/80/40 81/81/41
f 80/80/40 82/82/41 81/81/41
f 81/81/41 82/82/41 83/83/42
f 82/82/41 84/84/42 83/83/42
f 83/83/42 84/84/42 85/85/43
f 84/84/42 86/86/43 85/85/43
f 85/85/43 86/86/43 87/87/44
f 86/86/43 88/88/44 87/87/44
f 87/87/44 88/88/44 89/89/45
f 88/88/44 90/90/45 89/89/45
f 91/91/46 92/92/46 93/93/47
f 92/92/46 94/94/47 93/93/47
f 93/93/47 94/94/47 95/95/48
f 94/94/47 96/96/48 95/95/48
f 95/95/48 96/96/48 97/97/49
f 96/96/48 98/98/49 97/97/49
f 97/97/49 98/98/49 99/99/50
f 98/98/49 100/100/50 99/99/50
f 99/99/50 100/100/50 101/101/51
f 100/100/50 102/102/51 101/101/51
f 101/101/51 102/102/51 103/103/52
f 102/102/51 104/104/52 103/103/52
f 103/103/52 104/104/52 105/105/53
f 104/104/52 106/106/53 105/105/53
f 105/105/53 106/106/53 107/107/54
f 106/106/53 108/108/54 107/107/54
f 109/109/55 110/110/56 111/111/57
f 110/110/56 112/112/58 111/111/57
f 111/111/57 112/112/58 113/113/59
f 114/114/60 115/115/61 116/116/62
f 115/115/61 117/117/63 116/116/62
f 116/116/62 117/117/63 118/118/64
f 119/119/65 120/120/66 121/121/67
f 120/120/66 122/122/68 121/121/67
f 121/121/67 122/122/68 123/123/69
f 124/124/70 125/125/71 126/126/71
f 125/125/71 127/127/72 126/126/71
f 128/128/73 129/129/74 130/130/74
f 129/129/74 131/131/75 130/130/74
f 132/132/76 133/133/77 134/134/77
f 133/133/77 135/135/78 134/134/77
f 136/136/79 137/137/79 138/138/79
