# Blender v2.79 (sub 0) OBJ File: ''
# www.blender.org
mtllib Pad.mtl
v 0.009326 7.162510 -3.377497
v 0.009322 7.162510 3.377502
v 0.009331 -6.812100 3.377502
v 0.009334 -6.812100 -3.377497
v 0.009335 -8.060240 0.000003
v 4.321827 -5.178800 4.041958
v 0.571826 -5.178803 4.041956
v 0.571827 -7.206449 3.093575
v 4.321827 -7.206446 3.093577
v 0.571830 -8.561277 1.674224
v 4.321828 -8.561274 1.674225
v 0.571830 -9.037027 -0.000016
v 4.321830 -9.037023 -0.000015
v 0.571831 -8.561277 -1.674256
v 4.321830 -8.561274 -1.674255
v 0.571829 -7.206447 -3.093607
v 4.321828 -7.206443 -3.093606
v 0.571829 -5.178801 -4.041988
v 4.321828 -5.178797 -4.041987
vt -0.0179 -0.0052
vt 1.0179 -0.0052
vt 1.0179 0.9327
vt -0.0179 0.9327
vt 0.5000 1.0165
vt 1.0000 1.1328
vt 0.0000 1.1328
vt 0.0000 1.4141
vt 1.0000 1.4141
vt 0.0000 1.6953
vt 1.0000 1.6953
vt 0.0000 1.9766
vt 1.0000 1.9766
vt 0.0000 1.6953
vt 1.0000 1.6953
vt 0.0000 1.4141
vt 1.0000 1.4141
vt 0.0000 1.1328
vt 1.0000 1.1328
vn 0.9882 0.1112 -0.1053
vn 0.9882 0.1112 0.1053
vn 0.9921 -0.0691 0.1044
vn 0.9921 -0.0691 -0.1044
vn 0.9830 -0.1836 -0.0000
vn -0.0000 -0.6210 0.7838
vn 0.0000 -0.6209 0.7839
vn 0.0000 -0.8192 0.5734
vn -0.0003 -0.8192 0.5735
vn 0.0000 -0.9604 0.2785
vn 0.0000 -1.0000 -0.0000
vn 0.0003 -0.9604 -0.2785
vn 0.0000 -0.9604 -0.2785
vn 0.0000 -0.8192 -0.5735
vn 0.0000 -0.8192 -0.5734
vn -0.0001 -0.6210 -0.7838
vn 0.0000 -0.6209 -0.7839
usemtl gxmat629
s 1
f 1/1/1 2/2/2 3/3/3
f 1/1/1 3/3/3 4/4/4
f 4/4/4 3/3/3 5/5/5
f 6/6/6 7/7/7 8/8/8
f 6/6/6 8/8/8 9/9/9
f 9/9/9 8/8/8 10/10/10
f 9/9/9 10/10/10 11/11/10
f 11/11/10 10/10/10 12/12/11
f 11/11/10 12/12/11 13/13/11
f 13/13/11 12/12/11 14/14/12
f 13/13/11 14/14/12 15/15/13
f 15/15/13 14/14/12 16/16/14
f 15/15/13 16/16/14 17/17/15
f 17/17/15 16/16/14 18/18/16
f 17/17/15 18/18/16 19/19/17
