# Blender v2.79 (sub 0) OBJ File: ''
# www.blender.org
mtllib PadCollision.mtl
v -7.162510 0.009327 -3.377497
v -7.162510 0.009324 3.377502
v 6.812100 0.009330 3.377502
v 6.812100 0.009333 -3.377497
v 8.060240 0.009333 0.000003
vt -0.0179 -0.0052
vt 1.0179 -0.0052
vt 1.0179 0.9327
vt -0.0179 0.9327
vt 0.5000 1.0165
vn -0.1112 0.9882 -0.1053
vn -0.1112 0.9882 0.1053
vn 0.0691 0.9921 0.1044
vn 0.0691 0.9921 -0.1044
vn 0.1836 0.9830 -0.0000
usemtl gxmat629
s 1
f 1/1/1 2/2/2 3/3/3
f 1/1/1 3/3/3 4/4/4
f 4/4/4 3/3/3 5/5/5
