# Blender v2.79 (sub 0) OBJ File: ''
# www.blender.org
mtllib BlueFalcon.mtl
v 0.561994 1.502652 -0.637610
v 0.448627 1.509583 -0.793555
v 0.257621 1.282684 -0.155867
v 0.569088 1.495582 -0.368393
v 0.569088 1.495574 0.375458
v 0.257621 1.282652 0.162956
v 0.561994 1.502673 0.637631
v 0.448627 1.509623 0.800558
v 0.136891 1.509228 0.800558
v 0.023533 1.509055 0.637590
v 0.136890 1.509187 -0.793555
v 0.023533 1.509033 -0.637651
v 0.790849 -0.183211 -0.262110
v 0.855349 -0.764126 -0.106244
v 0.578698 -0.495244 -0.368441
v 0.855349 -0.764114 0.106270
v 0.790849 -0.183231 0.269225
v 0.579992 -1.515441 -0.106262
v 0.579992 -1.515479 0.106303
v 0.578698 -0.495253 0.375511
v 0.414773 0.269706 -1.006050
v 0.244978 0.078186 -1.020187
v 0.669849 0.255852 -0.637600
v 0.419964 1.764625 -0.077962
v 0.046701 0.000000 -0.701420
v 0.824835 0.950402 -0.155868
v 0.611256 1.764868 -0.077962
v 0.512067 1.764760 -0.127509
v 0.419964 1.764614 0.077942
v 0.244979 0.078222 1.020198
v 0.046701 -0.000000 0.701420
v 0.414774 0.269721 1.013144
v 0.195295 0.149012 1.119439
v 0.193184 1.813949 1.168940
v 0.024773 0.531371 1.062695
v 0.023155 1.806661 1.062723
v 0.669849 0.255875 0.637641
v 0.824835 0.950371 0.162954
v 0.611256 1.764857 0.077942
v 0.512067 1.764715 0.127489
v 0.444973 -1.196816 0.318851
v 0.578698 -0.495241 0.588027
v 0.367965 -1.926621 0.162957
v 0.444973 -1.196804 0.531365
v 0.245671 -0.467307 0.588065
v 0.147813 -1.516017 0.318819
v 0.147812 -1.516002 -0.318778
v 0.191131 -2.153609 -0.233774
v 0.444973 -1.196814 -0.531360
v 0.367965 -1.926639 -0.155816
v 0.444973 -1.196852 -0.318795
v 0.578698 -0.495258 -0.580956
v 0.245671 -0.467289 0.575039
v 0.245670 -0.467325 -0.580918
v 0.191131 -2.153537 0.233838
v 0.195295 0.148936 -1.112321
v 0.193183 1.813915 -1.169026
v 0.994900 0.929382 1.168990
v 0.024772 0.531350 -1.062756
v 0.994899 0.929300 -1.169025
v 0.023155 1.806645 -1.062728
v 0.046701 0.000000 0.000000
v 0.585746 -0.466879 -0.850194
v 0.245670 -0.467310 -0.850194
v 0.245671 -0.467313 0.850227
v 0.585747 -0.466882 0.850227
v 1.086086 1.652110 1.168970
v 0.915843 1.814866 1.168940
v 1.086086 1.652076 -1.168996
v 0.915842 1.814831 -1.169026
vt 0.3335 0.3335
vt -0.5220 0.1001
vt 0.2974 -0.0586
vt 0.3335 0.3335
vt 0.2974 -0.0586
vt -0.5220 0.1001
vt 0.8486 0.2979
vt -0.0181 0.2725
vt 0.6279 0.2993
vt 0.8350 0.2383
vt 0.5037 0.1298
vt -0.0181 0.0405
vt 0.5037 0.0223
vt 0.5037 0.2372
vt 0.5970 -0.0256
vt -0.0182 0.0000
vt 0.5035 0.0223
vt -0.0259 0.2842
vt -0.0537 0.2300
vt 0.3145 0.1787
vt -0.0537 0.1958
vt 0.5035 0.0223
vt -0.0182 0.0000
vt 0.5970 -0.0256
vt -0.0181 0.0003
vt 0.6279 -0.0269
vt -0.0258 -0.0119
vt -0.0181 0.0000
vt 0.8486 -0.0254
vt 0.8350 0.0342
vt -0.0537 0.0425
vt 0.3145 0.0938
vt -0.0537 0.0767
vt -0.0181 0.2608
vt -0.0181 0.2195
vt 0.5036 0.2372
vt -0.0181 0.0425
vt 0.7473 1.4449
vt 0.7962 1.4540
vt 0.7868 0.5931
vt 0.8944 1.0176
vt 0.7431 1.5037
vt 0.8426 1.4828
vt 0.8184 1.5068
vt 0.4166 1.3462
vt 0.1435 0.5620
vt 0.4225 0.4946
vt 0.3306 0.2961
vt 0.9650 0.3121
vt 0.8071 0.3932
vt 0.7017 1.4633
vt 0.8193 1.2549
vt 0.3977 1.4144
vt 0.1989 1.0401
vt 0.3308 0.2044
vt 0.3494 0.1933
vt 0.7514 0.0584
vt 0.8162 0.0827
vt 0.7021 0.0533
vt 0.9209 0.1053
vt 0.6804 0.7154
vt 0.4563 1.3629
vt 0.7778 1.5296
vt 0.6700 1.1911
vt 0.8371 1.4007
vt 0.8349 1.4372
vt 0.8439 1.4660
vt 0.6304 0.6993
vt 0.6963 1.2055
vt 0.7694 1.1943
vt 0.4303 0.9256
vt 0.6632 1.2425
vt 0.4049 1.1875
vt 0.1287 0.5927
vt 0.9108 1.2822
vt 0.9778 1.0720
vt 1.0960 1.2709
vt 1.0691 1.2136
vt 0.9473 1.2716
vt 0.9659 0.0805
vt 0.8222 0.0623
vt 0.8303 0.1965
vt 0.8520 0.4066
vt 0.8903 0.3571
vt 1.0405 1.4646
vt 1.1290 1.3864
vt 1.1907 1.3768
vt 0.9414 1.4673
vt 1.0239 1.4760
vt 0.8983 1.3769
vt 0.9661 0.0831
vt 0.9835 0.3162
vt 1.1882 1.1672
vt 0.8464 0.0485
vt 0.6987 1.0254
vt 0.5928 1.3997
vt 0.7135 0.6124
vt 0.6670 0.3467
vt 0.4170 0.3535
vt 0.6670 0.6670
vt 0.4708 0.5731
vt 0.6695 0.4803
vt 0.5196 0.4803
vt 0.7159 0.5731
vt 0.5173 0.6592
vt 0.6672 0.6592
vt 0.5830 0.3535
vt 0.3330 0.6670
vt 0.5830 0.6670
vt 0.3330 0.3467
vt 0.7060 0.4121
vt 0.5420 0.4248
vt 0.4658 0.4746
vt 0.3701 0.4619
vt 0.4170 0.6670
vt 0.7060 0.5869
vt 0.4658 0.5244
vt 0.5420 0.5752
vt 0.4658 0.4742
vt 0.3701 0.5371
vt 0.4629 0.2500
vt 0.0078 0.0435
vt 0.0000 0.2500
vt -0.0000 0.2500
vt 0.3749 0.0908
vt 0.1605 0.0908
vt 0.5361 0.2500
vt 0.7139 0.2500
vt 0.3828 0.0815
vt -0.3477 0.2500
vt 0.4990 0.2500
vt 0.4996 0.0332
vt -0.0008 0.2500
vt 0.5000 0.0332
vt 0.0000 0.0332
vt 0.0000 0.2500
vt -0.2500 0.2500
vt 0.9883 0.2500
vt 0.1367 0.0815
vt 0.0371 0.2500
vt 0.5000 0.2500
vt 0.4922 0.0435
vt -6.3435 2.4880
vt -5.3065 2.4880
vt -5.7919 1.8134
vt 0.3125 -0.0869
vt -0.0625 -0.0869
vt -0.1519 0.5835
vt 0.4019 0.5835
vt 0.2155 0.4815
vt 0.2192 0.2750
vt 0.2149 0.4490
vt -6.3995 2.4916
vt -6.9501 1.8185
vt -7.4356 2.4930
vt 0.2110 0.4133
vt 0.4999 0.5000
vt -0.3907 -1.3906
vt 0.3329 -1.5996
vt 0.5000 0.5000
vt 0.3330 -1.5996
vt 0.5000 -1.2002
vt 0.5000 0.5000
vt 0.3330 -1.5996
vt -0.3906 -1.3906
vt 0.5000 -1.2002
vt -0.2002 0.6366
vt 0.3623 0.0351
vt 0.1372 0.0351
vt 0.7002 0.6366
vt 0.5161 0.8276
vt -0.0186 0.6708
vt -0.0186 0.9824
vt 0.5161 0.6562
vt 0.5161 0.9990
vt 0.2002 -0.9941
vt -0.1001 -0.5742
vt 1.1001 0.1445
vt 0.7002 -1.0146
vt -0.2002 -1.0146
vt -0.6001 0.1445
vt 0.2998 -0.9941
vt 0.6001 -0.5742
vt 0.6001 0.5996
vt 0.2998 1.0264
vt -0.1001 0.5996
vt 0.2002 1.0264
vt 0.0923 1.0508
vt 0.9297 0.4561
vt 0.8137 -0.0000
vt -0.1667 0.0000
vt -0.3137 0.0000
vt -0.4297 0.4561
vt 0.4077 1.0508
vt 0.6668 -0.0000
vn -0.1126 -0.1075 0.9878
vn -0.3783 -0.1665 0.9106
vn -0.0065 -0.0793 0.9968
vn -0.1142 -0.0983 -0.9886
vn -0.0059 -0.0694 -0.9976
vn -0.3827 -0.1602 -0.9099
vn 0.4193 0.0776 -0.9045
vn 0.7566 -0.1859 -0.6270
vn 0.1223 -0.0993 -0.9875
vn 0.9183 0.0424 -0.3935
vn -0.9783 -0.2074 0.0000
vn -0.9670 -0.2548 -0.0000
vn -0.9527 -0.1668 0.2538
vn -0.9527 -0.1668 -0.2539
vn -0.8382 -0.0645 -0.5415
vn -0.9225 -0.3278 -0.2041
vn 0.0004 -0.2975 -0.9547
vn 0.9681 -0.2357 -0.0847
vn 0.9236 -0.1428 -0.3558
vn 0.9191 -0.3940 0.0000
vn -0.9225 -0.3278 0.2040
vn -0.8387 -0.0646 0.5408
vn 0.1004 -0.1100 0.9888
vn 0.0004 -0.2975 0.9547
vn 0.7571 -0.1880 0.6256
vn 0.4088 0.0721 0.9098
vn 0.9190 0.0426 0.3920
vn 0.9683 -0.2351 0.0847
vn 0.9224 -0.1413 0.3595
vn 0.9194 -0.3934 0.0000
vn -0.9671 -0.2543 -0.0000
vn -0.9879 -0.1549 -0.0002
vn -0.0002 0.1689 -0.9856
vn -0.0085 0.1671 -0.9859
vn 0.9353 0.1032 -0.3384
vn 0.7130 0.3875 -0.5844
vn -0.8973 0.3465 -0.2736
vn -0.8154 0.4255 -0.3925
vn -0.8957 0.3501 0.2741
vn -0.9555 0.0061 -0.2951
vn 0.9996 -0.0300 -0.0000
vn 0.9312 0.1005 -0.3505
vn 0.8387 0.4335 -0.3298
vn -0.0634 0.6580 -0.7503
vn -0.8154 0.4312 0.3862
vn 0.7152 0.3930 0.5780
vn -0.9579 0.0034 0.2870
vn -0.8207 0.0256 0.5708
vn -0.0116 0.1665 0.9860
vn 0.9907 0.0108 -0.1355
vn 0.9430 0.1138 0.3128
vn 0.9202 0.1264 0.3705
vn 0.9878 0.0059 -0.1558
vn -0.5158 -0.0032 0.8567
vn -0.3811 -0.0265 0.9242
vn -0.3717 -0.0281 0.9279
vn -0.5298 -0.0007 0.8481
vn -0.0002 0.1690 0.9856
vn 0.9385 0.1017 0.3298
vn 0.9311 0.1008 0.3505
vn 0.8388 0.4371 0.3246
vn -0.0624 0.6691 0.7406
vn 0.9898 -0.1426 0.0000
vn 0.8400 -0.4849 0.2435
vn 0.9837 -0.1738 0.0453
vn -0.4579 -0.1564 0.8751
vn -0.9998 0.0219 0.0000
vn -0.9998 0.0221 0.0000
vn -0.9977 -0.0678 0.0000
vn -0.4654 -0.1480 -0.8727
vn -0.4593 -0.1549 -0.8747
vn 0.9837 -0.1741 -0.0453
vn 0.8437 -0.4838 -0.2327
vn 0.8050 -0.5563 -0.2062
vn 0.8020 -0.5604 0.2066
vn -0.4653 -0.1479 0.8727
vn -0.8084 0.0320 -0.5878
vn 0.9360 0.1179 -0.3317
vn 0.9910 0.0113 0.1334
vn 0.9111 0.1307 -0.3909
vn 0.9881 0.0065 0.1534
vn 0.0013 -0.9945 -0.1048
vn -0.0350 -0.9976 -0.0603
vn -0.0469 -0.9979 -0.0455
vn -0.0013 1.0000 0.0001
vn -0.0013 1.0000 0.0002
vn -0.0011 1.0000 0.0001
vn -0.0342 -0.9974 0.0627
vn -0.0476 -0.9978 0.0458
vn -0.0836 -0.9965 -0.0000
vn 0.0013 -0.9942 0.1075
vn 0.6782 -0.1867 0.7107
vn 0.6699 -0.1941 0.7166
vn 0.6423 -0.2180 0.7348
vn 0.6339 -0.2250 0.7400
vn -0.0836 -0.9965 -0.0001
vn 0.6850 -0.1805 -0.7058
vn 0.6364 -0.2229 -0.7384
vn 0.6739 -0.1906 -0.7138
vn 0.8888 -0.4583 -0.0000
vn 0.8888 -0.4583 -0.0001
vn 0.6249 -0.2324 -0.7453
vn 0.6038 -0.1433 -0.7841
vn 0.9939 0.1104 0.0000
vn 0.5606 -0.2054 -0.8022
vn 0.9389 -0.3441 -0.0001
vn 0.9389 -0.3441 0.0000
vn 0.5702 -0.2089 0.7945
vn 0.6106 -0.1503 0.7775
vn -0.0154 -0.0139 0.9998
vn -0.0329 -0.0297 0.9990
vn -0.0214 -0.0194 0.9996
vn -0.5140 -0.0036 -0.8578
vn -0.3453 -0.0324 -0.9380
vn -0.3562 -0.0306 -0.9339
vn -0.0176 -0.0160 -0.9997
vn -0.0245 -0.0222 -0.9995
vn -0.0376 -0.0341 -0.9987
vn -0.5301 -0.0007 -0.8479
vn -0.0000 0.0001 1.0000
vn -0.0000 0.0002 1.0000
vn 0.0000 -0.0000 -1.0000
vn 0.0000 -0.0002 -1.0000
vn 0.4359 0.8774 0.2004
vn 0.4550 0.8864 -0.0858
vn 0.4548 0.8865 0.0853
vn 0.4446 0.8737 -0.1975
vn -0.3537 0.9150 0.1943
vn -0.1207 0.9461 0.3005
vn -0.5469 0.8364 0.0364
vn -0.5464 0.8367 -0.0374
vn -0.3610 0.9127 -0.1915
vn -0.1236 0.9460 -0.2997
vn 0.1376 0.9412 -0.3084
vn 0.1350 0.9415 0.3089
vn 0.8080 0.0780 -0.5839
vn 0.8200 0.0749 0.5674
usemtl M_794103F_a
s 1
f 45/1/1 44/2/2 42/3/3
f 54/4/4 52/5/5 49/6/6
usemtl M_811A6C_a
f 21/7/7 63/8/8 22/9/9
f 21/7/7 23/10/10 63/8/8
f 62/11/11 45/12/12 31/13/13
f 45/12/12 62/11/11 25/14/14
f 22/15/15 64/16/16 25/17/14
f 22/9/9 63/8/8 64/18/17
f 63/8/8 23/10/10 52/19/18
f 23/10/10 13/20/19 52/19/18
f 52/19/18 13/20/19 15/21/20
f 31/22/13 65/23/21 30/24/22
f 45/12/12 65/25/21 31/13/13
f 30/26/23 65/27/24 66/28/25
f 32/29/26 30/26/23 66/28/25
f 37/30/27 32/29/26 66/28/25
f 42/31/28 37/30/27 66/28/25
f 17/32/29 37/30/27 42/31/28
f 17/32/29 42/31/28 20/33/30
f 64/34/16 54/35/31 25/36/14
f 53/37/32 25/14/14 54/35/31
f 25/14/14 53/37/32 45/12/12
usemtl PaintJob
f 2/38/33 21/39/7 11/40/34
f 11/40/34 21/39/7 22/41/9
f 1/42/35 13/43/19 23/44/10
f 1/42/35 4/45/36 13/43/19
f 4/45/36 3/46/37 24/47/38
f 3/46/37 6/48/39 24/47/38
f 22/41/15 25/49/14 12/50/40
f 13/43/41 26/51/42 17/52/41
f 4/45/36 26/51/42 13/43/19
f 4/45/36 27/53/43 26/51/42
f 28/54/44 27/53/43 4/45/36
f 24/47/38 6/48/39 29/55/45
f 29/55/45 6/48/39 5/56/46
f 10/57/47 30/58/22 9/59/48
f 10/57/47 31/60/13 30/58/22
f 9/59/49 30/58/23 32/61/26
f 9/62/50 33/63/51 30/64/52
f 9/62/50 34/65/53 33/63/51
f 34/65/54 35/66/55 33/63/56
f 34/65/54 36/67/57 35/66/55
f 9/59/49 32/61/26 8/68/58
f 17/52/29 7/69/59 37/70/27
f 17/52/29 5/71/46 7/69/59
f 5/71/46 17/52/29 38/72/60
f 26/51/42 38/72/60 17/52/41
f 26/51/42 39/73/61 38/72/60
f 26/51/42 27/53/43 39/73/61
f 39/73/61 5/71/46 38/72/60
f 39/73/61 40/74/62 5/71/46
f 29/55/45 5/71/46 40/74/62
f 41/75/63 20/76/30 42/77/28
f 43/78/64 41/75/63 44/79/65
f 41/75/63 42/77/28 44/79/65
f 45/80/1 46/81/66 44/82/2
f 47/83/67 46/81/68 45/80/12
f 47/83/67 48/84/69 46/81/68
f 49/85/6 48/84/70 47/83/71
f 49/85/72 50/86/73 48/87/74
f 49/85/72 51/88/63 50/86/73
f 49/85/72 15/89/20 51/88/63
f 52/90/18 15/89/20 49/85/72
f 53/91/32 47/83/67 45/80/12
f 47/83/67 53/91/32 54/92/31
f 54/92/4 49/85/6 47/83/71
f 43/78/64 44/79/65 55/93/75
f 44/82/2 46/81/66 55/94/76
f 48/84/69 55/94/69 46/81/68
f 28/54/44 4/45/36 24/47/38
f 22/41/15 12/50/40 11/40/77
f 56/95/78 11/96/79 22/41/80
f 57/97/81 11/96/79 56/95/78
usemtl M_765064ED_a
f 63/98/82 52/99/83 64/100/84
f 28/101/85 39/102/86 27/103/87
f 28/101/85 40/104/85 39/102/86
f 24/105/86 40/104/85 28/101/85
f 40/104/85 24/105/86 29/106/87
f 42/107/88 65/108/89 45/109/90
f 66/110/91 65/108/89 42/107/88
f 20/111/92 41/112/93 19/113/94
f 41/112/93 43/114/95 19/113/94
f 52/99/83 54/115/96 64/100/84
f 15/116/97 18/117/98 51/118/99
f 19/119/100 50/120/73 18/117/101
f 50/120/73 19/119/100 43/114/64
f 51/118/99 18/117/98 50/120/102
usemtl M_4471531C_c
f 13/121/103 14/122/103 15/123/103
f 13/124/104 16/125/104 14/126/104
f 16/125/104 13/124/104 17/127/104
f 15/128/105 14/129/105 18/130/105
f 18/131/106 14/132/107 19/133/107
f 14/134/107 16/135/107 19/136/107
f 20/137/108 19/138/108 16/139/108
f 17/140/109 20/141/109 16/142/109
usemtl M_725BFC01_c
f 34/143/110 33/144/111 58/145/112
f 50/146/73 43/147/64 55/148/75
f 48/149/74 50/146/73 55/148/75
f 57/150/113 56/151/114 59/152/115
f 57/153/116 60/154/117 56/155/118
f 57/150/113 59/152/115 61/156/119
usemtl M_811A6C_c
f 34/157/110 58/158/112 67/159/120
f 34/160/110 67/161/120 68/162/121
f 57/163/116 69/164/122 60/165/117
f 57/163/116 70/166/123 69/164/122
usemtl M_4F83875A_c
f 12/167/124 6/168/125 3/169/126
f 6/168/125 12/167/124 10/170/127
f 62/171/11 10/172/47 12/173/40
f 10/172/47 62/171/11 31/174/13
f 62/171/11 12/173/40 25/175/14
usemtl _auto_
f 1/176/128 2/177/129 3/178/126
f 4/179/130 1/176/128 3/178/126
f 5/180/131 6/181/125 7/182/132
f 7/182/132 6/181/125 8/183/133
f 8/183/133 6/181/125 9/184/134
f 6/181/125 10/185/127 9/184/134
f 3/178/126 11/186/135 12/187/124
f 2/177/129 11/186/135 3/178/126
usemtl M_3C776F0A_c2
f 21/188/7 2/189/136 1/190/35
f 21/188/7 1/190/35 23/191/10
f 7/192/59 8/193/137 32/194/26
f 7/192/59 32/194/26 37/195/27
