# 3ds Max Wavefront OBJ Exporter v0.94b - (c)2007 guruware
# File Created: 08.12.2010 20:45:00

mtllib Earth Ring.mtl

#
# object EarthRing_ncl1_1
#

v  -0.0122 -207540.2969 0.0066
v  0.0000 0.0000 -0.0000
v  -0.0098 -207015.1250 16525.9121
v  -0.0073 -204516.5625 35489.4922
v  -0.0171 -200094.7813 55365.9766
v  -0.0122 -193667.0625 74714.9297
v  -0.0073 -185419.1250 93346.7422
v  -0.0171 -175401.6563 111052.7734
v  -0.0049 -163644.1563 127735.4609
v  -0.0098 -150381.8750 143118.0625
v  -0.0122 -135595.0156 157177.8594
v  -0.0171 -119579.4531 169747.9844
v  -0.0073 -102313.2188 180634.0938
v  -0.0098 -84141.4844 189789.8281
v  0.0098 -63342.9883 197785.6563
v  -0.0146 -40722.6758 203168.0625
v  -0.0122 -19012.5391 206373.1563
v  0.0024 0.0000 207540.3281
v  -0.0122 19012.5391 206373.1563
v  -0.0122 40722.6875 203168.0625
v  0.0098 63343.0000 197785.6563
v  -0.0049 84141.5000 189789.8438
v  -0.0122 102313.2188 180634.0938
v  -0.0220 119579.4609 169747.9688
v  -0.0171 135595.0313 157177.8438
v  -0.0122 150381.9219 143118.0625
v  -0.0073 163644.1563 127735.4375
v  -0.0171 175401.7031 111052.7656
v  -0.0073 185419.1406 93346.7188
v  -0.0122 193667.0938 74714.9141
v  -0.0146 200094.8125 55365.9609
v  -0.0049 204516.6250 35489.4922
v  -0.0073 207015.1563 16525.9004
v  -0.0122 207540.3125 -0.0066
v  -0.0098 207015.1563 -16525.9121
v  -0.0073 204516.6250 -35489.4922
v  -0.0171 200094.8125 -55365.9609
v  -0.0122 193667.0938 -74714.8984
v  -0.0098 185419.1250 -93346.7422
v  -0.0195 175401.7031 -111052.7891
v  -0.0098 163644.1563 -127735.4609
v  -0.0146 150381.9219 -143118.0781
v  -0.0195 135595.0313 -157177.8438
v  -0.0244 119579.4609 -169747.9688
v  -0.0122 102313.2188 -180634.0938
v  -0.0122 84141.5000 -189789.8438
v  0.0024 63343.0000 -197785.6563
v  -0.0195 40722.6875 -203168.0938
v  -0.0171 19012.5391 -206373.1563
v  -0.0049 0.0000 -207540.3281
v  -0.0098 -207015.1250 -16525.9160
v  -0.0073 -204516.5625 -35489.4922
v  -0.0171 -200094.7813 -55365.9609
v  -0.0122 -193667.0625 -74714.9141
v  -0.0098 -185419.1250 -93346.7344
v  -0.0195 -175401.6563 -111052.7734
v  -0.0098 -163644.1563 -127735.4531
v  -0.0122 -150381.8750 -143118.0781
v  -0.0171 -135595.0156 -157177.8281
v  -0.0244 -119579.4531 -169747.9844
v  -0.0122 -102313.2188 -180634.0938
v  -0.0122 -84141.4844 -189789.8438
v  0.0049 -63342.9883 -197785.6563
v  -0.0195 -40722.6758 -203168.0938
v  -0.0171 -19012.5391 -206373.1563
# 65 vertices

vn 1.0000 -0.0000 -0.0000
vn 1.0000 0.0000 -0.0000
vn 1.0000 -0.0000 0.0000
vn 1.0000 0.0000 0.0000
# 4 vertex normals

vt 0.9729 0.5000 0.0000
vt -3.9211 0.5000 0.0000
# 2 texture coords

g EarthRing_ncl1_1
usemtl luminous
s 1
f -65/-2/-4 -64/-1/-3 -63/-2/-4 
f -63/-2/-4 -64/-1/-3 -62/-2/-2 
f -64/-1/-3 -61/-2/-2 -62/-2/-2 
f -61/-2/-2 -64/-1/-3 -60/-2/-4 
f -60/-2/-4 -64/-1/-3 -59/-2/-1 
f -64/-1/-3 -58/-2/-4 -59/-2/-1 
f -58/-2/-4 -64/-1/-3 -57/-2/-4 
f -57/-2/-4 -64/-1/-3 -56/-2/-1 
f -64/-1/-3 -55/-2/-1 -56/-2/-1 
f -55/-2/-1 -64/-1/-3 -54/-2/-4 
f -54/-2/-4 -64/-1/-3 -53/-2/-4 
f -64/-1/-3 -52/-2/-4 -53/-2/-4 
f -52/-2/-4 -64/-1/-3 -51/-2/-3 
f -51/-2/-3 -64/-1/-3 -50/-2/-1 
f -64/-1/-3 -49/-2/-2 -50/-2/-1 
f -49/-2/-2 -64/-1/-3 -48/-2/-3 
f -48/-2/-3 -64/-1/-3 -47/-2/-1 
f -64/-1/-3 -46/-2/-2 -47/-2/-1 
f -46/-2/-2 -64/-1/-3 -45/-2/-4 
f -45/-2/-4 -64/-1/-3 -44/-2/-3 
f -64/-1/-3 -43/-2/-3 -44/-2/-3 
f -43/-2/-3 -64/-1/-3 -42/-2/-1 
f -42/-2/-1 -64/-1/-3 -41/-2/-2 
f -64/-1/-3 -40/-2/-2 -41/-2/-2 
f -40/-2/-2 -64/-1/-3 -39/-2/-3 
f -39/-2/-3 -64/-1/-3 -38/-2/-1 
f -64/-1/-3 -37/-2/-2 -38/-2/-1 
f -37/-2/-2 -64/-1/-3 -36/-2/-3 
f -36/-2/-3 -64/-1/-3 -35/-2/-1 
f -64/-1/-3 -34/-2/-2 -35/-2/-1 
f -34/-2/-2 -64/-1/-3 -33/-2/-3 
f -33/-2/-3 -64/-1/-3 -32/-2/-3 
f -64/-1/-3 -31/-2/-1 -32/-2/-3 
f -31/-2/-1 -64/-1/-3 -30/-2/-3 
f -30/-2/-3 -64/-1/-3 -29/-2/-3 
f -64/-1/-3 -28/-2/-1 -29/-2/-3 
f -28/-2/-1 -64/-1/-3 -27/-2/-4 
f -27/-2/-4 -64/-1/-3 -26/-2/-3 
f -64/-1/-3 -25/-2/-1 -26/-2/-3 
f -25/-2/-1 -64/-1/-3 -24/-2/-4 
f -24/-2/-4 -64/-1/-3 -23/-2/-4 
f -64/-1/-3 -22/-2/-1 -23/-2/-4 
f -22/-2/-1 -64/-1/-3 -21/-2/-1 
f -21/-2/-1 -64/-1/-3 -20/-2/-1 
f -64/-1/-3 -19/-2/-4 -20/-2/-1 
f -19/-2/-4 -64/-1/-3 -18/-2/-4 
f -18/-2/-4 -64/-1/-3 -17/-2/-3 
f -64/-1/-3 -16/-2/-3 -17/-2/-3 
f -65/-2/-4 -15/-2/-2 -64/-1/-3 
f -64/-1/-3 -15/-2/-2 -14/-2/-4 
f -14/-2/-4 -13/-2/-4 -64/-1/-3 
f -64/-1/-3 -13/-2/-4 -12/-2/-2 
f -12/-2/-2 -11/-2/-3 -64/-1/-3 
f -64/-1/-3 -11/-2/-3 -10/-2/-4 
f -10/-2/-4 -9/-2/-2 -64/-1/-3 
f -64/-1/-3 -9/-2/-2 -8/-2/-3 
f -8/-2/-3 -7/-2/-3 -64/-1/-3 
f -64/-1/-3 -7/-2/-3 -6/-2/-4 
f -6/-2/-4 -5/-2/-2 -64/-1/-3 
f -64/-1/-3 -5/-2/-2 -4/-2/-2 
f -4/-2/-2 -3/-2/-3 -64/-1/-3 
f -64/-1/-3 -3/-2/-3 -2/-2/-3 
s 3
f -2/-2/-3 -1/-2/-4 -64/-1/-3 
s 2
f -64/-1/-3 -1/-2/-4 -16/-2/-4 
# 64 faces

