# 3ds Max Wavefront OBJ Exporter v0.94b - (c)2007 guruware
# File Created: 11.12.2010 12:42:40

mtllib KmoonZ.mtl

#
# object KmoonZ
#

v  4.0000 0.0250 0.0250
v  4.0000 -0.0250 0.0250
v  4.0000 0.0250 -0.0250
v  4.0000 -0.0250 -0.0250
v  0.2500 0.2500 -0.2500
v  0.2500 -0.2500 -0.2500
v  0.2500 0.2500 0.2500
v  0.2500 -0.2500 0.2500
v  0.0000 0.0000 -0.0000
# 9 vertices

vn 1.0000 0.0000 -0.0000
vn 0.0599 0.0000 -0.9982
vn 0.0599 0.9982 -0.0000
vn 0.0599 -0.9982 -0.0000
vn 0.0599 0.0000 0.9982
vn -0.7071 0.7071 -0.0000
vn -0.7071 0.0000 -0.7071
vn -0.7071 -0.7071 -0.0000
vn -0.7071 0.0000 0.7071
# 9 vertex normals

g KmoonZ
usemtl wire_174186203
s 1
f -9//-9 -8//-9 -7//-9 
f -6//-9 -7//-9 -8//-9 
s 2
f -5//-8 -7//-8 -4//-8 
f -6//-8 -4//-8 -7//-8 
s 4
f -3//-7 -9//-7 -5//-7 
f -7//-7 -5//-7 -9//-7 
s 8
f -8//-6 -2//-6 -6//-6 
f -4//-6 -6//-6 -2//-6 
s 16
f -9//-5 -3//-5 -8//-5 
f -2//-5 -8//-5 -3//-5 
s 32
f -1//-4 -3//-4 -5//-4 
s 64
f -1//-3 -5//-3 -4//-3 
s 128
f -1//-2 -4//-2 -2//-2 
s 256
f -1//-1 -2//-1 -3//-1 
# 14 faces

#
# object KmoonZ
#

v  -50.0000 -6250.0000 -6250.0000
v  -50.0000 6250.0000 -6250.0000
v  -50.0000 -6250.0000 6250.0000
v  -50.0000 6250.0000 6250.0000
# 4 vertices

vn 1.0000 0.0000 -0.0000
# 1 vertex normals

vt 1.0000 0.0000 0.0000
vt 1.0000 1.0000 1.0000
vt 0.0000 0.0000 0.0000
vt 0.0000 1.0000 1.0000
# 4 texture coords

g KmoonZ
usemtl Material__35
s 1
f -4/-4/-1 -3/-3/-1 -2/-2/-1 
s 2
f -2/-2/-1 -3/-3/-1 -1/-1/-1 
# 2 faces

