# 3ds Max Wavefront OBJ Exporter v0.94b - (c)2007 guruware
# File Created: 08.12.2010 20:26:41

mtllib unnamed thing.mtl

#
# object polygon0
#

v  1655.7048 -819.3148 -2846.2402
v  1691.3622 -852.4487 -2766.2874
v  1738.4803 -832.3345 -2831.1023
v  1798.2992 -765.4448 -2861.9568
v  1765.3149 -696.7361 -2902.7520
v  1794.0983 -766.8345 -2936.1968
v  1623.3779 -797.4645 -2916.5195
v  1617.4528 -748.9329 -2863.1614
v  1707.7323 -695.8069 -2963.3188
v  1650.5867 -725.4841 -2918.0393
v  1707.8503 -782.4211 -2932.6023
v  1748.7047 -680.6180 -2797.9646
v  1676.5511 -660.7322 -2832.4961
v  1731.3187 -615.9999 -2865.9958
v  1766.9370 -812.1456 -2878.2322
v  1705.0314 -859.9369 -2893.7991
v  -1585.1693 1503.5592 -2573.7400
v  -1642.8976 1464.4175 -2494.2717
v  -1553.0826 1487.7795 -2484.4487
v  -1489.7638 1563.2638 -2442.2244
v  -1469.1732 1641.8898 -2496.3542
v  -1419.5039 1563.0001 -2488.2913
v  -1534.9054 1529.7521 -2644.6851
v  -1590.9252 1583.7166 -2619.5117
v  -1442.4724 1644.5394 -2586.8699
v  -1518.7559 1610.8110 -2617.6968
v  -1471.5945 1546.1852 -2570.8857
v  -1581.2086 1658.4685 -2453.1416
v  -1588.3976 1682.2284 -2542.8779
v  -1525.1260 1732.7836 -2507.4685
v  -1491.0984 1511.1063 -2482.8896
v  -1510.3779 1458.0040 -2553.0510
v  -198.4850 1460.7007 -438.3188
v  -162.8268 1427.5630 -358.3672
v  -115.7114 1447.6812 -423.1810
v  -55.8925 1514.5669 -454.0354
v  -88.8768 1583.2755 -494.8306
v  -60.0937 1513.1771 -528.2755
v  -230.8146 1482.5471 -508.5983
v  -236.7394 1531.0787 -455.2401
v  -146.4571 1584.2046 -555.3975
v  -203.6031 1554.5315 -510.1180
v  -146.3386 1497.5905 -524.6849
v  -105.4866 1599.3937 -390.0456
v  -177.6390 1619.2795 -424.5747
v  -122.8724 1664.0117 -458.0747
v  -87.2535 1467.8700 -470.3149
v  -149.1602 1420.0747 -485.8818
v  1498.5669 697.1459 -5336.2202
v  1534.2244 664.0081 -5256.2598
v  1581.3425 684.1262 -5321.0630
v  1641.1613 751.0159 -5351.9292
v  1608.1771 819.7247 -5392.7163
v  1636.9606 749.6223 -5426.1812
v  1466.2401 718.9924 -5406.4961
v  1460.3149 767.5278 -5353.1104
v  1550.5945 820.6537 -5453.2676
v  1493.4489 790.9766 -5407.9917
v  1550.7126 734.0356 -5422.5591
v  1591.5669 835.8428 -5287.9131
v  1519.4133 855.7247 -5322.4409
v  1574.1810 900.4569 -5355.9448
v  1609.7992 704.3152 -5368.1890
v  1547.8937 656.5238 -5383.7793
v  1620.8661 339.5303 -261.9933
v  1543.1221 305.0973 -227.6275
v  1606.2834 325.1035 -181.1271
v  1635.3857 390.1256 -121.3823
v  1674.1653 458.6851 -152.5205
v  1708.1377 390.1035 -125.5212
v  1689.3347 362.6843 -293.2901
v  1636.2283 409.4095 -298.2653
v  1733.4645 461.6142 -208.9130
v  1689.5984 432.7519 -265.4027
v  1704.8582 376.2496 -210.2771
v  1571.2322 472.9645 -168.5161
v  1604.6968 494.2677 -238.8598
v  1636.7677 537.7166 -184.4433
v  1652.1221 345.1980 -152.9031
v  1668.1692 299.7098 -214.3669
v  -334.6275 1174.7482 -2903.6143
v  -412.3740 1140.3151 -2869.2480
v  -349.2079 1160.3229 -2822.7478
v  -320.1075 1225.3427 -2763.0039
v  -281.3268 1293.9056 -2794.1416
v  -247.3535 1225.3230 -2767.1416
v  -266.1594 1197.9016 -2934.9094
v  -319.2646 1244.6300 -2939.8857
v  -222.0268 1296.8347 -2850.5315
v  -265.8933 1267.9725 -2907.0234
v  -250.6343 1211.4685 -2851.8975
v  -384.2591 1308.1852 -2810.1377
v  -350.7964 1329.4843 -2880.4802
v  -318.7240 1372.9371 -2826.0630
v  -303.3712 1180.4175 -2794.5234
v  -287.3228 1134.9292 -2855.9880
v  961.5039 -1317.6611 -5722.0864
v  903.7756 -1356.8029 -5642.6377
v  993.5945 -1333.4407 -5632.7949
v  1056.9094 -1257.9564 -5590.5903
v  1077.5039 -1179.3304 -5644.7241
v  1127.1693 -1258.2201 -5636.6533
v  1011.7676 -1291.4683 -5793.0313
v  955.7520 -1237.5037 -5767.8740
v  1104.2007 -1176.6808 -5735.2363
v  1027.9213 -1210.4092 -5766.0630
v  1075.0826 -1275.0352 -5719.2520
v  965.4645 -1162.7517 -5601.4961
v  958.2756 -1138.9918 -5691.2202
v  1021.5472 -1088.4366 -5655.8267
v  1055.5747 -1310.1139 -5631.2598
v  1036.2992 -1363.2163 -5701.4170
v  1206.3818 1265.3070 -881.8149
v  1128.6378 1230.8739 -847.4487
v  1191.7992 1250.8779 -800.9487
v  1220.9016 1315.9015 -741.2047
v  1259.6812 1384.4606 -772.3425
v  1293.6534 1315.8779 -745.3425
v  1274.8505 1288.4606 -913.1102
v  1221.7440 1335.1851 -918.0865
v  1318.9802 1387.3937 -828.7322
v  1275.1141 1358.5275 -885.2243
v  1290.3740 1302.0275 -830.0983
v  1156.7479 1398.7441 -788.3385
v  1190.2125 1420.0432 -858.6810
v  1222.2834 1463.4961 -804.2637
v  1237.6378 1270.9724 -772.7243
v  1253.6851 1225.4843 -834.1889
v  -1382.0669 -456.4644 -2570.9763
v  -1439.7953 -495.6061 -2491.5078
v  -1349.9802 -472.2400 -2481.6890
v  -1286.6614 -396.7597 -2439.4604
v  -1266.0709 -318.1333 -2493.5945
v  -1216.4015 -397.0196 -2485.5276
v  -1331.8031 -430.2676 -2641.9211
v  -1387.8229 -376.3065 -2616.7520
v  -1239.3700 -315.4825 -2584.1062
v  -1315.6536 -349.2093 -2614.9370
v  -1268.4921 -413.8345 -2568.1218
v  -1378.1101 -301.5542 -2450.3779
v  -1385.2952 -277.7939 -2540.1179
v  -1322.0236 -227.2401 -2504.7085
v  -1287.9961 -448.9172 -2480.1260
v  -1307.2755 -502.0196 -2550.2874
v  394.0236 1188.5514 -5319.9604
v  404.4331 1154.2404 -5408.6221
v  329.0004 1172.6381 -5375.5117
v  258.1248 1238.6696 -5379.3696
v  264.1673 1309.5593 -5327.0474
v  223.9669 1236.7286 -5311.5352
v  385.9870 1211.3073 -5241.4961
v  416.8661 1261.5356 -5286.1025
v  284.1154 1311.8821 -5244.0552
v  358.7555 1283.8861 -5254.6851
v  302.5783 1223.7128 -5270.5117
v  331.8370 1327.5042 -5411.4170
v  377.3366 1349.9017 -5344.2124
v  310.3126 1393.4530 -5342.9131
v  279.0937 1191.8860 -5348.5430
v  327.4701 1145.0042 -5302.7168
v  -508.5000 -1253.2123 -5270.5513
v  -498.0945 -1287.5194 -5359.2124
v  -573.5275 -1269.1257 -5326.1021
v  -644.4016 -1203.0942 -5329.9604
v  -638.3583 -1132.2045 -5277.6377
v  -678.5591 -1205.0352 -5262.1260
v  -516.5394 -1230.4564 -5192.0469
v  -485.6614 -1180.2280 -5236.6929
v  -618.4134 -1129.8816 -5194.6455
v  -543.7717 -1157.8738 -5205.2358
v  -599.9488 -1218.0509 -5221.1021
v  -570.6890 -1114.2595 -5362.0078
v  -525.1890 -1091.8619 -5294.7637
v  -592.2126 -1048.3068 -5293.5039
v  -623.4330 -1249.8777 -5299.1338
v  -575.0551 -1296.7595 -5253.3071
v  -1887.9211 -941.2677 -494.5473
v  -1877.5157 -975.5748 -583.2008
v  -1952.9448 -957.1811 -550.0984
v  -2023.8228 -891.1496 -553.9489
v  -2017.7795 -820.2598 -501.6181
v  -2057.9802 -893.0905 -486.1024
v  -1895.9607 -918.5118 -416.0473
v  -1865.0826 -868.2834 -460.6654
v  -1997.8308 -817.9370 -418.6299
v  -1923.1929 -845.9330 -429.2402
v  -1979.3701 -906.1063 -445.0945
v  -1950.1101 -802.3149 -585.9922
v  -1904.6102 -779.9173 -518.7678
v  -1971.6339 -736.3661 -517.4961
v  -2002.8542 -937.9331 -523.1142
v  -1954.4764 -984.8149 -477.2953
v  -1302.7205 336.0853 -5319.8428
v  -1360.4528 296.9435 -5240.3936
v  -1270.6338 320.3069 -5230.5508
v  -1207.3149 395.7915 -5188.3467
v  -1186.7244 474.4176 -5242.4805
v  -1137.0552 395.5278 -5234.4097
v  -1252.4567 362.2794 -5390.7871
v  -1308.4763 416.2443 -5365.6299
v  -1160.0236 477.0672 -5332.9917
v  -1236.3070 443.3388 -5363.8188
v  -1189.1456 378.7132 -5317.0078
v  -1298.7638 490.9963 -5199.2515
v  -1305.9489 514.7561 -5288.9761
v  -1242.6771 565.3073 -5253.5825
v  -1208.6536 343.6329 -5229.0156
v  -1227.9291 290.5298 -5299.1733
v  270.5835 -1861.7520 -643.6969
v  212.8543 -1900.8937 -564.2245
v  302.6720 -1877.5275 -554.4055
v  365.9893 -1802.0432 -512.1772
v  386.5803 -1723.4213 -566.3111
v  436.2480 -1802.3070 -558.2441
v  320.8473 -1835.5551 -714.6379
v  264.8291 -1781.5945 -689.4686
v  413.2795 -1720.7677 -656.8229
v  336.9984 -1754.4960 -687.6536
v  384.1595 -1819.1219 -640.8386
v  274.5425 -1706.8424 -523.0985
v  267.3551 -1683.0825 -612.8347
v  330.6268 -1632.5276 -577.4252
v  364.6535 -1854.2047 -552.8465
v  345.3756 -1907.3070 -623.0079
v  -2473.9646 1761.1105 -4794.8818
v  -2429.8423 1761.1105 -4673.6221
v  -2391.2874 1664.3467 -4756.3384
v  -2352.7322 1761.1105 -4839.0156
v  -2308.6062 1761.1105 -4717.7559
v  -2391.2874 1857.8743 -4756.3384
v  653.1496 -2128.8501 -5303.5430
v  697.2756 -2128.8501 -5182.3228
v  735.8307 -2225.6099 -5264.9995
v  774.3858 -2128.8501 -5347.6768
v  818.5118 -2128.8501 -5226.4565
v  735.8307 -2032.0863 -5264.9995
v  2242.6416 -774.0549 -5265.3149
v  2286.7678 -774.0549 -5144.0552
v  2325.3228 -870.8186 -5226.7324
v  2363.8779 -774.0549 -5309.4487
v  2408.0039 -774.0549 -5188.1890
v  2325.3228 -677.2911 -5226.7324
v  -1381.0708 -566.4485 -5581.9683
v  -1336.9489 -566.4485 -5460.7480
v  -1298.3937 -663.2123 -5543.4248
v  -1259.8385 -566.4485 -5626.1021
v  -1215.7125 -566.4485 -5504.8423
v  -1298.3937 -469.6848 -5543.4248
v  2064.1023 2103.9451 -5273.7397
v  2108.2283 2103.9451 -5152.5195
v  2146.7793 2007.1814 -5235.1968
v  2185.3347 2103.9451 -5317.8740
v  2229.4607 2103.9451 -5196.6143
v  2146.7793 2200.7087 -5235.1968
v  2207.2007 -2078.6377 -5624.2124
v  2251.3228 -2078.6377 -5502.9526
v  2289.8779 -2175.4014 -5585.6689
v  2328.4331 -2078.6377 -5668.3462
v  2372.5588 -2078.6377 -5547.0864
v  2289.8779 -1981.8778 -5585.6689
v  -1963.0275 -1427.8462 -5215.1182
v  -2053.1260 -1427.8462 -5107.7163
v  -1954.3859 -1532.9761 -5116.3774
v  -1855.6455 -1427.8462 -5125.0000
v  -1945.7480 -1427.8462 -5017.6377
v  -1954.3859 -1322.7162 -5116.3774
v  2556.7007 931.0042 -5269.3306
v  2590.7598 931.0042 -5175.7480
v  2620.5156 856.3192 -5239.5669
v  2650.2756 931.0042 -5303.3857
v  2684.3345 931.0042 -5209.8032
v  2620.5156 1005.6931 -5239.5669
v  -998.7520 2920.1301 -5549.9604
v  -964.6929 2920.1301 -5456.3779
v  -934.9330 2845.4451 -5520.1968
v  -905.1771 2920.1301 -5584.0156
v  -871.1180 2920.1301 -5490.4331
v  -934.9330 2994.8191 -5520.1968
v  217.3000 2111.4058 -3006.6968
v  261.4252 2111.4058 -2885.4604
v  299.9791 2014.6418 -2968.1455
v  338.5350 2111.4058 -3050.8267
v  382.6598 2111.4058 -2929.5906
v  299.9791 2208.1694 -2968.1455
v  -86.9878 -2006.6810 -3182.9529
v  -42.8630 -2006.6810 -3061.7163
v  -4.3088 -2103.4446 -3144.4014
v  34.2468 -2006.6810 -3227.0789
v  78.3720 -2006.6810 -3105.8423
v  -4.3088 -1909.9171 -3144.4014
v  2185.5315 1301.7756 -3072.9683
v  2229.6575 1301.7756 -2951.7322
v  2268.2085 1205.0159 -3034.4172
v  2306.7676 1301.7756 -3117.0945
v  2350.8896 1301.7756 -2995.8582
v  2268.2085 1398.5394 -3034.4172
v  -1585.5748 -1181.3345 -2922.0471
v  -1541.4528 -1181.3345 -2800.8110
v  -1502.8977 -1278.0983 -2883.4919
v  -1464.3424 -1181.3345 -2966.1731
v  -1420.2166 -1181.3345 -2844.9370
v  -1502.8977 -1084.5747 -2883.4919
v  1199.9763 1618.0787 -3042.4958
v  1244.1023 1618.0787 -2921.2598
v  1282.6534 1521.3190 -3003.9407
v  1321.2086 1618.0787 -3086.6221
v  1365.3346 1618.0787 -2965.3857
v  1282.6534 1714.8427 -3003.9407
v  1415.5275 -2259.9763 -2747.7361
v  1459.6536 -2259.9763 -2626.5000
v  1498.2047 -2356.7361 -2709.1809
v  1536.7599 -2259.9763 -2791.8621
v  1580.8857 -2259.9763 -2670.6260
v  1498.2047 -2163.2126 -2709.1809
v  -2334.2324 83.5293 -3126.8936
v  -2424.3347 83.5293 -3019.5117
v  -2325.5942 -21.6010 -3028.1533
v  -2226.8542 83.5293 -3036.7913
v  -2316.9565 83.5293 -2929.4133
v  -2325.5942 188.6592 -3028.1533
v  2097.8228 651.8190 -2748.6692
v  2131.8818 651.8190 -2655.0906
v  2161.6416 577.1301 -2718.9094
v  2191.3975 651.8190 -2782.7283
v  2225.4568 651.8190 -2689.1494
v  2161.6416 726.5040 -2718.9094
v  -1047.4054 -2510.6572 -2835.3308
v  -1013.3464 -2510.6575 -2741.7517
v  -983.5906 -2585.3423 -2805.5708
v  -953.8307 -2510.6572 -2869.3857
v  -919.7716 -2510.6575 -2775.8110
v  -983.5906 -2435.9683 -2805.5708
v  670.1653 2213.7363 -287.2558
v  714.2874 2213.7363 -166.0196
v  752.8425 2116.9724 -248.7019
v  791.3976 2213.7363 -331.3826
v  835.5236 2213.7363 -210.1463
v  752.8425 2310.4961 -248.7019
v  -936.3464 -1392.2166 -381.8946
v  -892.2205 -1392.2166 -260.6583
v  -853.6653 -1488.9802 -343.3406
v  -815.1102 -1392.2166 -426.0197
v  -770.9843 -1392.2166 -304.7851
v  -853.6653 -1295.4528 -343.3406
v  -2343.4055 604.9489 -720.5118
v  -2299.2795 604.9488 -599.2756
v  -2260.7283 508.1851 -681.9567
v  -2222.1692 604.9489 -764.6378
v  -2178.0474 604.9488 -643.4016
v  -2260.7283 701.7126 -681.9566
v  -1602.1417 2243.7637 -914.5392
v  -1558.0157 2243.7637 -793.3030
v  -1519.4645 2147.0000 -875.9841
v  -1480.9094 2243.7637 -958.6652
v  -1436.7834 2243.7637 -837.4290
v  -1519.4645 2340.5276 -875.9841
v  -2753.8188 -1055.7755 -1077.2244
v  -2709.6968 -1055.7755 -955.9882
v  -2671.1418 -1152.5354 -1038.6693
v  -2632.5867 -1055.7755 -1121.3503
v  -2588.4604 -1055.7755 -1000.1142
v  -2671.1418 -959.0117 -1038.6693
v  1776.5078 -1540.4252 -646.5788
v  1820.6339 -1540.4252 -525.3426
v  1859.1851 -1637.1890 -608.0276
v  1897.7440 -1540.4252 -690.7048
v  1941.8661 -1540.4252 -569.4685
v  1859.1851 -1443.6614 -608.0276
v  2268.2124 1301.7755 -708.0551
v  2312.3347 1301.7755 -586.8188
v  2350.8896 1205.0157 -669.4999
v  2389.4448 1301.7755 -752.1810
v  2433.5708 1301.7755 -630.9448
v  2350.8896 1398.5393 -669.4999
v  -1481.5394 1363.0118 -798.5944
v  -1571.6417 1363.0118 -691.2125
v  -1472.9015 1257.8818 -699.8542
v  -1374.1575 1363.0118 -708.4920
v  -1464.2598 1363.0118 -601.1141
v  -1472.9015 1468.1417 -699.8542
v  1021.6102 -2898.7834 -99.1966
v  1055.6692 -2898.7834 -5.6205
v  1085.4252 -2973.4683 -69.4371
v  1115.1851 -2898.7834 -133.2545
v  1149.2441 -2898.7834 -39.6781
v  1085.4252 -2824.0984 -69.4371
v  -624.0157 -2188.4526 -150.4162
v  -589.9567 -2188.4526 -56.8399
v  -560.2008 -2263.1377 -120.6568
v  -530.4409 -2188.4526 -184.4741
v  -496.3819 -2188.4526 -90.8977
v  -560.2008 -2113.7637 -120.6568
v  2307.1299 256.6516 -985.8661
v  2358.5276 256.6516 -844.6535
v  2403.4331 143.9457 -940.9567
v  2448.3425 256.6516 -1037.2598
v  2499.7400 256.6516 -896.0472
v  2403.4331 369.3583 -940.9567
# 398 vertices

vn 0.0828 0.9332 0.3498
vn -0.9132 -0.4032 0.0592
vn 0.8711 0.4076 -0.2740
vn 0.4969 0.2907 0.8177
vn 0.1426 -0.6992 -0.7006
vn -0.5025 0.4015 0.7657
vn -0.2696 0.9270 0.2607
vn -0.5045 -0.3961 -0.7672
vn 0.6694 0.4041 0.6234
vn -0.4620 0.2739 0.8435
vn 0.6840 -0.6898 -0.2374
vn -0.9178 0.3943 -0.0462
vn 0.0828 0.9331 0.3498
vn 0.4970 0.2906 0.8177
vn -0.5025 0.4016 0.7656
vn 0.0827 0.9332 0.3498
vn 0.8711 0.4077 -0.2740
vn 0.4969 0.2906 0.8177
vn 0.1426 -0.6992 -0.7005
vn -0.5027 0.4013 0.7657
vn -0.3660 0.9253 0.0991
vn -0.0525 -0.3882 -0.9201
vn 0.2671 0.3971 0.8781
vn -0.8225 0.2676 0.5019
vn 0.7127 -0.6893 0.1303
vn -0.7727 0.3969 -0.4954
vn -0.0524 -0.3882 -0.9201
vn 0.2671 0.3970 0.8781
vn -0.2697 0.9270 0.2607
vn 0.6693 0.4041 0.6234
vn 0.6840 -0.6898 -0.2375
vn -0.9178 0.3943 -0.0463
vn 0.7127 -0.6893 0.1304
vn -0.7727 0.3968 -0.4954
vn 0.0728 0.9330 -0.3525
vn 0.8330 -0.3727 0.4088
vn -0.9041 0.3766 -0.2018
vn -0.0311 0.2813 -0.9591
vn -0.4506 -0.7097 0.5416
vn 0.8046 0.4244 -0.4153
vn -0.9042 0.3765 -0.2017
vn -0.0306 0.2814 -0.9591
vn -0.4509 -0.7096 0.5415
vn 0.8331 -0.3727 0.4087
vn -0.0308 0.2814 -0.9591
vn -0.4508 -0.7096 0.5415
vn 0.6693 0.4042 0.6234
vn 0.6839 -0.6898 -0.2374
vn 0.6693 0.4041 0.6235
vn 0.7819 0.5547 -0.2845
vn -0.7819 -0.5547 0.2845
vn 0.7818 0.5547 -0.2846
vn -0.7819 -0.5547 0.2846
vn 0.7819 0.5547 -0.2846
vn 0.6375 0.5547 0.5348
vn -0.6373 -0.5547 -0.5349
vn 0.6374 0.5547 0.5348
vn -0.6374 -0.5547 -0.5348
# 58 vertex normals

vt 0.6000 0.5014 0.0000
vt 0.5000 0.3750 0.0000
vt 0.6000 0.2500 0.0000
vt 1.0000 0.2500 0.0000
vt 1.0000 0.5014 0.0000
vt 0.9000 0.3750 0.0000
vt 0.7000 0.3750 0.0000
vt 0.8000 0.2500 0.0000
vt 0.8000 0.5014 0.0000
vt 0.2000 0.5014 0.0000
vt 0.2000 0.2500 0.0000
vt 0.1000 0.3750 0.0000
vt 0.6000 0.5000 0.0000
vt 1.0000 0.5000 0.0000
vt 0.8000 0.5000 0.0000
vt 0.2000 0.5000 0.0000
vt 0.7500 0.5000 0.0000
vt 0.5000 0.5000 0.0000
vt 0.5000 1.0000 0.0000
vt 0.0000 0.5000 0.0000
vt 0.2500 0.5000 0.0000
vt 0.7500 0.5014 0.0000
vt 0.5000 0.5014 0.0000
vt 0.0000 0.5014 0.0000
vt 0.2500 0.5014 0.0000
# 25 texture coords

g polygon0
usemtl StarPiece1
s off
f -398/-25/-58 -397/-24/-58 -396/-23/-58 
f -395/-22/-57 -394/-21/-57 -393/-20/-57 
f -392/-19/-56 -391/-23/-56 -398/-25/-56 
f -390/-20/-55 -389/-18/-55 -388/-17/-55 
f -387/-16/-54 -386/-15/-54 -385/-14/-54 
f -384/-18/-53 -388/-17/-53 -383/-19/-53 
f -382/-25/-52 -381/-24/-52 -380/-23/-52 
f -379/-22/-51 -378/-21/-51 -377/-20/-51 
f -376/-19/-50 -375/-23/-50 -382/-25/-50 
f -374/-20/-49 -373/-18/-49 -372/-17/-49 
f -371/-16/-48 -370/-15/-48 -369/-14/-48 
f -368/-18/-47 -372/-17/-47 -367/-19/-47 
f -366/-25/-46 -365/-24/-46 -364/-23/-46 
f -363/-22/-57 -362/-21/-57 -361/-20/-57 
f -360/-19/-56 -359/-23/-56 -366/-25/-56 
f -358/-20/-45 -357/-18/-45 -356/-17/-45 
f -355/-16/-54 -354/-15/-54 -353/-14/-54 
f -352/-18/-44 -356/-17/-44 -351/-19/-44 
f -350/-25/-43 -349/-24/-43 -348/-23/-43 
f -347/-22/-57 -346/-21/-57 -345/-20/-57 
f -344/-19/-42 -343/-23/-42 -350/-25/-42 
f -342/-20/-41 -341/-18/-41 -340/-17/-41 
f -339/-16/-40 -338/-15/-40 -337/-14/-40 
f -336/-18/-39 -340/-17/-39 -335/-19/-39 
f -334/-13/-38 -333/-24/-38 -332/-23/-38 
f -331/-22/-37 -330/-12/-37 -329/-20/-37 
f -328/-19/-36 -327/-23/-36 -334/-13/-36 
f -326/-20/-35 -325/-18/-35 -324/-11/-35 
f -323/-10/-34 -322/-15/-34 -321/-14/-34 
f -320/-18/-33 -324/-11/-33 -319/-19/-33 
f -318/-13/-38 -317/-24/-38 -316/-23/-38 
f -315/-22/-32 -314/-12/-32 -313/-20/-32 
f -312/-19/-31 -311/-23/-31 -318/-13/-31 
f -310/-20/-35 -309/-18/-35 -308/-11/-35 
f -307/-10/-34 -306/-15/-34 -305/-14/-34 
f -304/-18/-33 -308/-11/-33 -303/-19/-33 
f -302/-25/-30 -301/-24/-30 -300/-23/-30 
f -299/-22/-51 -298/-21/-51 -297/-20/-51 
f -296/-19/-29 -295/-23/-29 -302/-25/-29 
f -294/-20/-49 -293/-18/-49 -292/-17/-49 
f -291/-16/-28 -290/-15/-28 -289/-14/-28 
f -288/-18/-27 -292/-17/-27 -287/-19/-27 
f -286/-13/-38 -285/-24/-38 -284/-23/-38 
f -283/-22/-37 -282/-12/-37 -281/-20/-37 
f -280/-19/-36 -279/-23/-36 -286/-13/-36 
f -278/-20/-35 -277/-18/-35 -276/-11/-35 
f -275/-10/-26 -274/-15/-26 -273/-14/-26 
f -272/-18/-25 -276/-11/-25 -271/-19/-25 
f -270/-25/-30 -269/-24/-30 -268/-23/-30 
f -267/-22/-51 -266/-21/-51 -265/-20/-51 
f -264/-19/-50 -263/-23/-50 -270/-25/-50 
f -262/-20/-49 -261/-18/-49 -260/-17/-49 
f -259/-16/-48 -258/-15/-48 -257/-14/-48 
f -256/-18/-47 -260/-17/-47 -255/-19/-47 
f -254/-13/-24 -253/-24/-24 -252/-23/-24 
f -251/-22/-23 -250/-12/-23 -249/-20/-23 
f -248/-19/-22 -247/-23/-22 -254/-13/-22 
f -246/-20/-21 -245/-18/-21 -244/-11/-21 
f -243/-10/-20 -242/-15/-20 -241/-14/-20 
f -240/-18/-19 -244/-11/-19 -239/-19/-19 
f -238/-13/-24 -237/-24/-24 -236/-23/-24 
f -235/-22/-23 -234/-12/-23 -233/-20/-23 
f -232/-19/-18 -231/-23/-18 -238/-13/-18 
f -230/-20/-17 -229/-18/-17 -228/-11/-17 
f -227/-10/-16 -226/-15/-16 -225/-14/-16 
f -224/-18/-19 -228/-11/-19 -223/-19/-19 
f -222/-13/-24 -221/-24/-24 -220/-23/-24 
f -219/-22/-15 -218/-12/-15 -217/-20/-15 
f -216/-19/-22 -215/-23/-22 -222/-13/-22 
f -214/-20/-14 -213/-18/-14 -212/-11/-14 
f -211/-10/-13 -210/-15/-13 -209/-14/-13 
f -208/-18/-19 -212/-11/-19 -207/-19/-19 
f -206/-25/-30 -205/-24/-30 -204/-23/-30 
f -203/-22/-51 -202/-21/-51 -201/-20/-51 
f -200/-19/-12 -199/-23/-12 -206/-25/-12 
f -198/-20/-49 -197/-18/-49 -196/-17/-49 
f -195/-16/-11 -194/-15/-11 -193/-14/-11 
f -192/-18/-27 -196/-17/-27 -191/-19/-27 
f -190/-25/-30 -189/-24/-30 -188/-23/-30 
f -187/-22/-51 -186/-21/-51 -185/-20/-51 
f -184/-19/-10 -183/-23/-10 -190/-25/-10 
f -182/-20/-49 -181/-18/-49 -180/-17/-49 
f -179/-16/-48 -178/-15/-48 -177/-14/-48 
f -176/-18/-47 -180/-17/-47 -175/-19/-47 
f -174/-9/-9 -173/-8/-9 -172/-7/-9 
f -171/-6/-8 -170/-5/-8 -169/-7/-8 
f -168/-9/-7 -167/-8/-7 -166/-7/-7 
f -165/-6/-6 -164/-5/-6 -163/-7/-6 
f -162/-9/-9 -161/-8/-9 -160/-7/-9 
f -159/-6/-8 -158/-5/-8 -157/-7/-8 
f -156/-9/-5 -155/-8/-5 -154/-7/-5 
f -153/-6/-8 -152/-5/-8 -151/-7/-8 
f -150/-9/-5 -149/-8/-5 -148/-7/-5 
f -147/-6/-8 -146/-5/-8 -145/-7/-8 
f -144/-9/-9 -143/-8/-9 -142/-7/-9 
f -141/-6/-8 -140/-5/-8 -139/-7/-8 
f -138/-4/-4 -137/-3/-4 -136/-7/-4 
f -135/-2/-3 -134/-1/-3 -133/-7/-3 
f -132/-4/-5 -131/-3/-5 -130/-7/-5 
f -129/-2/-6 -128/-1/-6 -127/-7/-6 
f -126/-4/-5 -125/-3/-5 -124/-7/-5 
f -123/-2/-6 -122/-1/-6 -121/-7/-6 
f -120/-9/-5 -119/-8/-5 -118/-7/-5 
f -117/-6/-6 -116/-5/-6 -115/-7/-6 
f -114/-9/-5 -113/-8/-5 -112/-7/-5 
f -111/-6/-6 -110/-5/-6 -109/-7/-6 
f -108/-9/-5 -107/-8/-5 -106/-7/-5 
f -105/-6/-6 -104/-5/-6 -103/-7/-6 
f -102/-9/-5 -101/-8/-5 -100/-7/-5 
f -99/-6/-6 -98/-5/-6 -97/-7/-6 
f -96/-9/-5 -95/-8/-5 -94/-7/-5 
f -93/-6/-6 -92/-5/-6 -91/-7/-6 
f -90/-9/-5 -89/-8/-5 -88/-7/-5 
f -87/-6/-6 -86/-5/-6 -85/-7/-6 
f -84/-4/-2 -83/-3/-2 -82/-7/-2 
f -81/-2/-1 -80/-1/-1 -79/-7/-1 
f -78/-4/-5 -77/-3/-5 -76/-7/-5 
f -75/-2/-6 -74/-1/-6 -73/-7/-6 
f -72/-4/-5 -71/-3/-5 -70/-7/-5 
f -69/-2/-6 -68/-1/-6 -67/-7/-6 
f -66/-9/-5 -65/-8/-5 -64/-7/-5 
f -63/-6/-6 -62/-5/-6 -61/-7/-6 
f -60/-9/-5 -59/-8/-5 -58/-7/-5 
f -57/-6/-6 -56/-5/-6 -55/-7/-6 
f -54/-9/-5 -53/-8/-5 -52/-7/-5 
f -51/-6/-6 -50/-5/-6 -49/-7/-6 
f -48/-9/-5 -47/-8/-5 -46/-7/-5 
f -45/-6/-6 -44/-5/-6 -43/-7/-6 
f -42/-9/-5 -41/-8/-5 -40/-7/-5 
f -39/-6/-6 -38/-5/-6 -37/-7/-6 
f -36/-9/-5 -35/-8/-5 -34/-7/-5 
f -33/-6/-6 -32/-5/-6 -31/-7/-6 
f -30/-9/-5 -29/-8/-5 -28/-7/-5 
f -27/-6/-6 -26/-5/-6 -25/-7/-6 
f -24/-4/-2 -23/-3/-2 -22/-7/-2 
f -21/-2/-1 -20/-1/-1 -19/-7/-1 
f -18/-4/-5 -17/-3/-5 -16/-7/-5 
f -15/-2/-6 -14/-1/-6 -13/-7/-6 
f -12/-4/-5 -11/-3/-5 -10/-7/-5 
f -9/-2/-6 -8/-1/-6 -7/-7/-6 
f -6/-4/-5 -5/-3/-5 -4/-7/-5 
f -3/-2/-6 -2/-1/-6 -1/-7/-6 
# 142 faces

